<svg version="1.1" xmlns="http://www.w3.org/2000/svg" xmlns:xlink="http://www.w3.org/1999/xlink" width="139.23878" height="33.53462" viewBox="0,0,139.23878,33.53462"><defs><linearGradient x1="271.23748" y1="163.20548" x2="271.23748" y2="196.79452" gradientUnits="userSpaceOnUse" id="color-1"><stop offset="0" stop-color="#ffd466"/><stop offset="0.25472" stop-color="#ffd500"/><stop offset="0.50943" stop-color="#ffed94"/><stop offset="0.74764" stop-color="#fffac7"/><stop offset="1" stop-color="#ffe852"/></linearGradient></defs><g transform="translate(-170.38061,-163.23269)"><g data-paper-data="{&quot;isPaintingLayer&quot;:true}" stroke="none" stroke-width="0" stroke-linecap="butt" stroke-linejoin="round" stroke-miterlimit="10" stroke-dasharray="" stroke-dashoffset="0" style="mix-blend-mode: normal"><path d="M184.76725,175.1985v3.411h4.49c0.865,0 1.513,-0.143 1.945,-0.429c0.432,-0.286 0.648,-0.711 0.648,-1.276c0,-0.576 -0.216,-1.004 -0.648,-1.285c-0.432,-0.282 -1.08,-0.422 -1.945,-0.421zM232.34725,171.6015h5.42v16.797h-5.42zM202.03525,171.6015h5.853l7.633,11.23l7.633,-11.23h5.566v16.797h-5.445v-9.214l-6.194,9.214h-3.888l-6.194,-9.214v9.214h-4.964zM179.34725,171.6015h10.367c2.384,-0.001 4.238,0.439 5.563,1.319c1.325,0.881 1.998,2.209 2.019,3.984c-0.006,1.177 -0.307,2.16 -0.903,2.949c-0.596,0.789 -1.455,1.382 -2.576,1.778l5.183,6.767h-6.046l-4.753,-6.168h-3.434v6.168h-5.42z" fill="#ffffff" fill-rule="evenodd"/><path d="M250.69975,174.9585c-1.241,0.017 -2.186,0.229 -2.836,0.637c-0.65,0.407 -0.977,0.907 -0.981,1.501c0.004,0.615 0.331,1.125 0.981,1.531c0.65,0.405 1.595,0.615 2.836,0.63c1.229,-0.015 2.168,-0.225 2.815,-0.63c0.647,-0.406 0.973,-0.916 0.978,-1.531c-0.005,-0.594 -0.331,-1.094 -0.978,-1.501c-0.647,-0.408 -1.586,-0.62 -2.815,-0.637zM262.15775,171.6015h17.924v2.758l-10.414,14.039h-5.783l10.199,-13.2h-11.926zM250.72375,171.3375c2.18,0.019 4.018,0.415 5.514,1.189c1.497,0.773 2.631,1.809 3.402,3.108c0.772,1.299 1.159,2.747 1.163,4.342c-0.003,1.611 -0.39,3.07 -1.162,4.375c-0.772,1.306 -1.914,2.346 -3.427,3.121c-1.514,0.775 -3.384,1.171 -5.61,1.19c-2.21,-0.019 -4.062,-0.406 -5.556,-1.163c-1.495,-0.756 -2.554,-1.768 -3.179,-3.034l5.374,-1.01c0.257,0.487 0.684,0.871 1.281,1.154c0.597,0.282 1.33,0.426 2.2,0.432c1.089,-0.013 1.987,-0.229 2.694,-0.647c0.707,-0.419 1.221,-0.958 1.542,-1.619c0.321,-0.661 0.445,-1.362 0.373,-2.103c-0.683,0.562 -1.465,0.978 -2.343,1.25c-0.879,0.271 -1.931,0.406 -3.154,0.404c-2.523,-0.04 -4.539,-0.577 -6.05,-1.613c-1.511,-1.035 -2.286,-2.329 -2.324,-3.882c0.009,-1.562 0.8,-2.859 2.372,-3.89c1.572,-1.031 3.868,-1.565 6.89,-1.604z" fill="#ffffff" fill-rule="evenodd"/><path d="M284.91175,171.6015h14.11v3.597h-10.126l-0.384,2.307c0.425,-0.113 0.914,-0.211 1.467,-0.297c0.554,-0.085 1.217,-0.13 1.989,-0.135c1.799,0.013 3.346,0.278 4.641,0.794c1.294,0.517 2.29,1.208 2.987,2.074c0.697,0.866 1.049,1.83 1.057,2.891c-0.007,1.077 -0.377,2.054 -1.11,2.93c-0.734,0.877 -1.79,1.576 -3.169,2.098c-1.379,0.522 -3.039,0.789 -4.982,0.802c-2.383,-0.021 -4.348,-0.44 -5.895,-1.256c-1.546,-0.816 -2.629,-1.9 -3.249,-3.253l5.376,-0.961c0.24,0.56 0.673,1.007 1.299,1.339c0.627,0.332 1.45,0.502 2.469,0.51c1.236,-0.015 2.161,-0.231 2.775,-0.648c0.615,-0.418 0.922,-0.946 0.921,-1.585c0.001,-0.64 -0.324,-1.168 -0.975,-1.585c-0.65,-0.418 -1.629,-0.634 -2.937,-0.649c-0.757,0.006 -1.45,0.079 -2.079,0.219c-0.628,0.141 -1.255,0.316 -1.881,0.526l-3.432,-0.865z" fill="#ffffff" fill-rule="evenodd"/><path d="M170.38061,163.23269h9.37382v4.13341h-4.89259v25.2678h4.89259v4.13341h-9.37382zM309.61939,196.76731h-9.37382v-4.13341h4.89259v-25.2678h-4.89259v-4.13341h9.37382z" fill="url(#color-1)" fill-rule="nonzero"/></g></g></svg>